<svg width="224" height="160" viewBox="0 0 224 160" fill="none" xmlns="http://www.w3.org/2000/svg">
<circle cx="112" cy="48" r="112" fill="white"/>
<path d="M57.5471 107.919C57.5471 109.989 55.8797 111.739 53.8913 111.739H50.1025V111.637C49.5858 111.602 49.167 111.171 49.167 110.651V100.122C49.167 99.5699 49.6171 99.1354 50.1533 99.1354V99.0688H52.8228C54.8738 99.0688 56.4785 100.623 56.4785 102.623C56.4785 103.441 56.1967 104.208 55.727 104.827C56.8112 105.476 57.5471 106.627 57.5471 107.915V107.919ZM52.8228 101.042H51.1358V104.294H53.038C53.8561 104.177 54.5058 103.476 54.5058 102.627C54.5058 101.727 53.7896 101.042 52.8228 101.042ZM55.5744 107.919C55.5744 107.034 54.725 106.267 53.7543 106.267H51.1358V109.77H53.8874C54.772 109.77 55.5705 108.885 55.5705 107.919H55.5744Z" fill="#4F4895"/>
<path d="M63.2852 106.42V109.723H68.0565C68.6084 109.723 69.0586 110.173 69.0586 110.725C69.0586 111.277 68.6084 111.708 68.0565 111.708H62.2832C61.7313 111.708 61.2969 111.273 61.2969 110.725V100.044C61.2969 99.4917 61.7313 99.0416 62.2832 99.0416H68.0565C68.6084 99.0416 69.0586 99.4917 69.0586 100.044C69.0586 100.596 68.6084 101.046 68.0565 101.046H63.2852V104.431H68.0565C68.6084 104.431 69.0586 104.866 69.0586 105.433C69.0586 106.001 68.6084 106.416 68.0565 106.416H63.2852V106.42Z" fill="#4F4895"/>
<path d="M83.979 111.657C83.4936 111.908 82.8948 111.708 82.6443 111.223L81.3409 108.62H75.6184C75.5675 108.62 75.5362 108.62 75.501 108.604L74.2994 111.191C74.1311 111.559 73.7631 111.774 73.3991 111.774C73.2504 111.774 73.1173 111.743 72.9842 111.673C72.4832 111.438 72.268 110.855 72.4989 110.354L77.3719 99.8247C77.5403 99.4724 77.873 99.2571 78.2565 99.2415H78.2722C78.6558 99.2415 78.9885 99.4567 79.1724 99.7933L84.4291 110.322C84.6796 110.823 84.48 111.422 83.979 111.657ZM80.3428 106.616L78.3074 102.545L76.4208 106.616H80.3428Z" fill="#4F4895"/>
<path d="M94.6096 111.708C91.1222 111.708 88.2844 108.854 88.2844 105.367C88.2844 101.879 91.1222 99.0416 94.6096 99.0416C96.1792 99.0416 97.6822 99.6092 98.8486 100.658C99.2674 101.026 99.2987 101.66 98.9151 102.075C98.5472 102.474 97.9131 102.51 97.5139 102.142C96.7115 101.425 95.6782 101.042 94.6096 101.042C92.222 101.042 90.2884 102.979 90.2884 105.363C90.2884 107.747 92.2259 109.684 94.6096 109.684C95.7095 109.684 96.7624 109.285 97.5648 108.533C97.964 108.15 98.5981 108.181 98.9817 108.584C99.3496 108.983 99.334 109.618 98.9308 110.001C97.7448 111.085 96.2105 111.704 94.6096 111.704V111.708Z" fill="#4F4895"/>
<path d="M109.342 111.692C105.839 111.692 103.001 108.854 103.001 105.351C103.001 101.848 105.839 99.0259 109.342 99.0259C112.845 99.0259 115.668 101.864 115.668 105.367C115.668 108.87 112.83 111.692 109.342 111.692ZM109.342 101.046C106.955 101.046 105.021 102.983 105.021 105.351C105.021 107.719 106.959 109.672 109.342 109.672C111.726 109.672 113.648 107.735 113.648 105.351C113.648 102.967 111.71 101.046 109.342 101.046Z" fill="#4F4895"/>
<path d="M129.735 110.706L129.719 110.721V110.87C129.719 110.87 129.704 110.901 129.704 110.921C129.704 110.94 129.704 110.956 129.688 110.972V111.023L129.672 111.058L129.637 111.109C129.637 111.109 129.637 111.14 129.622 111.16C129.622 111.175 129.606 111.191 129.606 111.211L129.575 111.261C129.575 111.261 129.559 111.277 129.559 111.293C129.543 111.308 129.528 111.308 129.528 111.328C129.512 111.344 129.512 111.363 129.496 111.363C129.496 111.379 129.481 111.395 129.461 111.414C129.445 111.414 129.445 111.43 129.43 111.449C129.414 111.449 129.414 111.465 129.398 111.481C129.383 111.481 129.363 111.496 129.363 111.516H129.348L129.332 111.532C129.301 111.567 129.25 111.582 129.199 111.614C129.148 111.629 129.117 111.665 129.066 111.68H129.05C128.999 111.696 128.948 111.715 128.901 111.715H128.866C128.835 111.731 128.784 111.731 128.733 111.731H128.616L128.6 111.715H128.518C128.518 111.715 128.502 111.7 128.483 111.7C128.451 111.7 128.432 111.684 128.4 111.684C128.4 111.684 128.385 111.669 128.369 111.669C128.353 111.669 128.338 111.653 128.318 111.633C128.303 111.633 128.283 111.633 128.267 111.618C128.252 111.618 128.236 111.602 128.216 111.582C128.201 111.582 128.181 111.582 128.181 111.567C128.15 111.551 128.13 111.551 128.115 111.532C128.115 111.516 128.099 111.516 128.079 111.5C128.064 111.485 128.029 111.465 128.013 111.434C127.997 111.434 127.997 111.418 127.997 111.418C127.966 111.402 127.946 111.367 127.931 111.351V111.336L121.555 103.057V110.717C121.555 111.285 121.089 111.735 120.537 111.735C119.985 111.735 119.519 111.285 119.519 110.717V100.004C119.519 100.004 119.535 99.9888 119.535 99.9692V99.9184C119.535 99.9184 119.535 99.8831 119.551 99.8675V99.8166C119.551 99.8166 119.566 99.7814 119.566 99.7657C119.566 99.7501 119.582 99.7305 119.582 99.7305C119.582 99.7148 119.598 99.6992 119.598 99.6796L119.629 99.6287C119.629 99.6287 119.629 99.5935 119.645 99.5778C119.645 99.5622 119.66 99.5426 119.68 99.5269C119.68 99.5269 119.68 99.5113 119.695 99.4917L119.727 99.4604L119.742 99.4252L119.793 99.3743C119.793 99.3743 119.809 99.3586 119.825 99.3391L119.86 99.3078C119.86 99.3078 119.875 99.2921 119.891 99.2725H119.907L119.922 99.2569C119.938 99.2412 119.958 99.2216 119.973 99.2216C119.989 99.206 120.005 99.206 120.005 99.1864C120.02 99.1864 120.036 99.1708 120.056 99.1708C120.071 99.1551 120.087 99.1551 120.106 99.1551L120.157 99.1238C120.157 99.1238 120.173 99.1238 120.189 99.1081C120.204 99.1081 120.22 99.1081 120.239 99.0925H120.29C120.29 99.0925 120.322 99.0768 120.341 99.0768H120.392C120.392 99.0768 120.423 99.0612 120.443 99.0612H120.643C120.643 99.0612 120.674 99.0768 120.694 99.0768H120.744L120.776 99.0925L120.842 99.1081C120.842 99.1081 120.858 99.1238 120.874 99.1238C120.889 99.1238 120.905 99.1394 120.924 99.1394C120.94 99.1394 120.956 99.1551 120.975 99.1551L121.007 99.1903C121.007 99.1903 121.042 99.206 121.058 99.206C121.073 99.2216 121.089 99.2216 121.089 99.2373C121.104 99.2373 121.124 99.253 121.14 99.2725C121.155 99.2725 121.155 99.2882 121.171 99.2882L121.206 99.3234L121.238 99.3586L121.269 99.39C121.269 99.39 121.304 99.4252 121.304 99.4408C121.304 99.4408 121.309 99.4461 121.32 99.4565L127.692 107.735V100.075C127.692 99.5074 128.142 99.0573 128.71 99.0573C129.277 99.0573 129.727 99.5074 129.727 100.075V110.706H129.735Z" fill="#4F4895"/>
<path d="M146.84 111.692C143.337 111.692 140.499 108.854 140.499 105.351C140.499 101.848 143.337 99.0259 146.84 99.0259C150.343 99.0259 153.165 101.864 153.165 105.367C153.165 108.87 150.327 111.692 146.84 111.692ZM146.84 101.046C144.452 101.046 142.518 102.983 142.518 105.351C142.518 107.719 144.456 109.672 146.84 109.672C149.223 109.672 151.145 107.735 151.145 105.351C151.145 102.967 149.208 101.046 146.84 101.046Z" fill="#4F4895"/>
<path d="M167.232 110.706L167.216 110.721V110.87C167.216 110.87 167.201 110.901 167.201 110.921C167.201 110.94 167.201 110.956 167.185 110.972V111.023L167.169 111.058L167.134 111.109C167.134 111.109 167.134 111.14 167.118 111.16C167.118 111.175 167.103 111.191 167.103 111.211L167.071 111.261C167.071 111.261 167.056 111.277 167.056 111.293C167.04 111.308 167.024 111.308 167.024 111.328C167.009 111.344 167.009 111.363 166.993 111.363C166.993 111.379 166.978 111.395 166.958 111.414C166.942 111.414 166.942 111.43 166.927 111.449C166.911 111.449 166.911 111.465 166.895 111.481C166.88 111.481 166.86 111.496 166.86 111.516H166.844L166.829 111.532C166.797 111.567 166.747 111.582 166.696 111.614C166.645 111.629 166.614 111.665 166.563 111.68H166.547C166.496 111.696 166.445 111.715 166.398 111.715H166.363C166.332 111.731 166.281 111.731 166.23 111.731H166.112L166.097 111.715H166.015C166.015 111.715 165.999 111.7 165.979 111.7C165.948 111.7 165.929 111.684 165.897 111.684C165.897 111.684 165.882 111.669 165.866 111.669C165.85 111.669 165.835 111.653 165.815 111.633C165.799 111.633 165.78 111.633 165.764 111.618C165.748 111.618 165.733 111.602 165.713 111.582C165.698 111.582 165.678 111.582 165.678 111.567C165.647 111.551 165.627 111.551 165.611 111.532C165.611 111.516 165.596 111.516 165.576 111.5C165.561 111.485 165.525 111.465 165.51 111.434C165.494 111.434 165.494 111.418 165.494 111.418C165.463 111.402 165.443 111.367 165.428 111.351V111.336L159.051 103.057V110.717C159.051 111.285 158.586 111.735 158.034 111.735C157.482 111.735 157.016 111.285 157.016 110.717V100.004C157.016 100.004 157.032 99.9888 157.032 99.9692V99.9184C157.032 99.9184 157.032 99.8831 157.047 99.8675V99.8166C157.047 99.8166 157.063 99.7814 157.063 99.7657C157.063 99.7501 157.079 99.7305 157.079 99.7305C157.079 99.7148 157.094 99.6992 157.094 99.6796L157.126 99.6287C157.126 99.6287 157.126 99.5935 157.141 99.5778C157.141 99.5622 157.157 99.5426 157.177 99.5269C157.177 99.5269 157.177 99.5113 157.192 99.4917L157.224 99.4604L157.239 99.4252L157.29 99.3743C157.29 99.3743 157.306 99.3586 157.321 99.3391L157.357 99.3078C157.357 99.3078 157.372 99.2921 157.388 99.2725H157.404L157.419 99.2569C157.435 99.2412 157.454 99.2216 157.47 99.2216C157.486 99.206 157.501 99.206 157.501 99.1864C157.517 99.1864 157.533 99.1708 157.552 99.1708C157.568 99.1551 157.584 99.1551 157.603 99.1551L157.654 99.1238C157.654 99.1238 157.67 99.1238 157.685 99.1081C157.701 99.1081 157.717 99.1081 157.736 99.0925H157.787C157.787 99.0925 157.818 99.0768 157.838 99.0768H157.889C157.889 99.0768 157.92 99.0612 157.94 99.0612H158.139C158.139 99.0612 158.171 99.0768 158.19 99.0768H158.241L158.273 99.0925L158.339 99.1081C158.339 99.1081 158.355 99.1238 158.37 99.1238C158.386 99.1238 158.402 99.1394 158.421 99.1394C158.437 99.1394 158.453 99.1551 158.472 99.1551L158.503 99.1903C158.503 99.1903 158.539 99.206 158.554 99.206C158.57 99.2216 158.586 99.2216 158.586 99.2373C158.601 99.2373 158.621 99.253 158.637 99.2725C158.652 99.2725 158.652 99.2882 158.668 99.2882L158.703 99.3234L158.734 99.3586L158.766 99.39C158.766 99.39 158.801 99.4252 158.801 99.4408C158.801 99.4408 158.806 99.4461 158.817 99.4565L165.189 107.735V100.075C165.189 99.5074 165.639 99.0573 166.206 99.0573C166.774 99.0573 167.224 99.5074 167.224 100.075V110.706H167.232Z" fill="#4F4895"/>
<path d="M173.056 106.42V109.723H177.832C178.384 109.723 178.834 110.173 178.834 110.725C178.834 111.277 178.384 111.708 177.832 111.708H172.058C171.506 111.708 171.076 111.273 171.076 110.725V100.044C171.076 99.4917 171.51 99.0416 172.058 99.0416H177.832C178.384 99.0416 178.834 99.4917 178.834 100.044C178.834 100.596 178.384 101.046 177.832 101.046H173.056V104.431H177.832C178.384 104.431 178.834 104.866 178.834 105.433C178.834 106.001 178.384 106.416 177.832 106.416H173.056V106.42Z" fill="#4F4895"/>
<path d="M88.3473 126.953C85.8893 126.953 83.8931 124.945 83.8931 122.487C83.8931 120.029 85.8893 118.033 88.3473 118.033C89.4511 118.033 90.5079 118.432 91.3299 119.172C91.6234 119.43 91.6469 119.876 91.3768 120.17C91.1185 120.452 90.6723 120.475 90.3905 120.217C89.8269 119.712 89.0988 119.442 88.3473 119.442C86.6643 119.442 85.3021 120.804 85.3021 122.487C85.3021 124.17 86.6643 125.532 88.3473 125.532C89.1223 125.532 89.8621 125.25 90.4257 124.722C90.7075 124.452 91.1537 124.475 91.4238 124.757C91.6821 125.039 91.6704 125.485 91.3886 125.755C90.5549 126.519 89.4746 126.953 88.3434 126.953H88.3473Z" fill="#776947"/>
<path d="M102.423 126.918C102.082 127.094 101.659 126.953 101.483 126.613L100.567 124.781H96.5359C96.5007 124.781 96.4772 124.781 96.4537 124.769L95.6082 126.589C95.4908 126.848 95.2325 127 94.9741 127C94.8685 127 94.7745 126.977 94.6806 126.93C94.3283 126.765 94.1757 126.354 94.3401 126.002L97.7727 118.585C97.8902 118.338 98.125 118.186 98.3951 118.174H98.4068C98.6769 118.174 98.9117 118.327 99.0409 118.561L102.744 125.979C102.92 126.331 102.779 126.754 102.427 126.918H102.423ZM99.859 123.368L98.4264 120.499L97.0995 123.368H99.8629H99.859Z" fill="#776947"/>
<path d="M111.382 120.714C111.382 122.1 110.161 123.29 108.701 123.29H106.846V126.241C106.846 126.628 106.54 126.934 106.153 126.934C105.765 126.934 105.46 126.628 105.46 126.241V118.777C105.46 118.413 105.754 118.107 106.118 118.084V118.013H108.795C110.192 118.013 111.382 119.246 111.382 120.718V120.714ZM109.985 120.714C109.985 120.033 109.421 119.411 108.799 119.411H106.849V121.888H108.705C109.386 121.888 109.985 121.337 109.985 120.714Z" fill="#776947"/>
<path d="M114.913 126.941C114.525 126.941 114.208 126.624 114.208 126.225V118.738C114.208 118.338 114.525 118.021 114.913 118.021C115.3 118.021 115.629 118.338 115.629 118.738V126.225C115.629 126.624 115.312 126.941 114.913 126.941Z" fill="#776947"/>
<path d="M125.312 118.761C125.312 119.16 124.995 119.477 124.608 119.477H122.588V126.256C122.588 126.656 122.271 126.973 121.884 126.973C121.496 126.973 121.167 126.656 121.167 126.256V119.477H119.159C118.772 119.477 118.455 119.16 118.455 118.761C118.455 118.362 118.772 118.056 119.159 118.056H124.612C124.999 118.056 125.316 118.373 125.316 118.761H125.312Z" fill="#776947"/>
<path d="M135.943 126.918C135.602 127.094 135.18 126.953 135.004 126.613L134.088 124.781H130.056C130.021 124.781 129.997 124.781 129.974 124.769L129.128 126.589C129.011 126.848 128.753 127 128.494 127C128.389 127 128.295 126.977 128.201 126.93C127.849 126.765 127.696 126.354 127.86 126.002L131.293 118.585C131.41 118.338 131.645 118.186 131.915 118.174H131.927C132.197 118.174 132.432 118.327 132.561 118.561L136.264 125.979C136.44 126.331 136.299 126.754 135.947 126.918H135.943ZM133.379 123.368L131.947 120.499L130.62 123.368H133.383H133.379Z" fill="#776947"/>
<path d="M139.673 126.989C139.497 126.989 139.321 126.918 139.192 126.789C139.062 126.66 138.98 126.484 138.98 126.296V118.761C138.98 118.374 139.297 118.068 139.673 118.068C140.049 118.068 140.366 118.374 140.366 118.761V125.591L143.822 125.556H143.834C144.209 125.556 144.515 125.861 144.527 126.237C144.527 126.625 144.221 126.942 143.834 126.942L139.685 126.989H139.673Z" fill="#776947"/>
<path d="M128.482 29.7265C128.239 29.4604 127.821 29.4408 127.551 29.6874L123.327 33.5545C123.061 33.8011 123.041 34.216 123.288 34.4861C123.413 34.6231 123.589 34.7014 123.773 34.7014C123.938 34.7014 124.094 34.6387 124.22 34.5291L128.443 30.662C128.709 30.4154 128.729 30.0005 128.482 29.7343V29.7265Z" fill="#8C7228"/>
<path d="M128.439 43.3358L124.216 39.4687C123.95 39.2221 123.531 39.2417 123.284 39.5118C123.042 39.7779 123.057 40.1967 123.327 40.4394L127.551 44.3065C127.672 44.4161 127.828 44.4788 127.997 44.4788C128.181 44.4788 128.357 44.4005 128.482 44.2635C128.725 43.9973 128.709 43.5785 128.439 43.3358Z" fill="#4F4895"/>
<path d="M132.095 36.4746H126.028C125.664 36.4746 125.371 36.7682 125.371 37.1322C125.371 37.4962 125.664 37.7898 126.028 37.7898H132.095C132.459 37.7898 132.753 37.4962 132.753 37.1322C132.753 36.7682 132.459 36.4746 132.095 36.4746Z" fill="#4F4895"/>
<path d="M114 17.2209C100.614 17.2209 89.7209 28.1139 89.7209 41.5002C89.7209 51.8295 96.2732 61.0472 106.023 64.4368C106.188 64.4956 106.368 64.4838 106.524 64.4095C106.685 64.3312 106.802 64.1981 106.861 64.0337C106.92 63.8693 106.908 63.6893 106.833 63.5288C106.759 63.3722 106.622 63.2509 106.458 63.1922C97.236 59.9865 91.04 51.2659 91.04 41.4963C91.04 28.8341 101.342 18.5322 114.004 18.5322C126.666 18.5322 136.968 28.8341 136.968 41.4963C136.968 51.3167 130.729 60.0491 121.445 63.2274C121.1 63.3448 120.92 63.7206 121.034 64.065C121.124 64.3312 121.374 64.5112 121.656 64.5112C121.731 64.5112 121.801 64.4995 121.868 64.476C131.684 61.1138 138.279 51.8804 138.279 41.5002C138.279 28.1139 127.386 17.2209 114 17.2209Z" fill="#8C7228"/>
<path d="M129.351 88.2421H98.649C98.285 88.2421 97.9915 88.5356 97.9915 88.8996C97.9915 89.2636 98.285 89.5572 98.649 89.5572H129.351C129.715 89.5572 130.009 89.2636 130.009 88.8996C130.009 88.5356 129.715 88.2421 129.351 88.2421Z" fill="#8C7228"/>
<path d="M132.256 85.0247H109.859C109.495 85.0247 109.201 85.3182 109.201 85.6822C109.201 86.0462 109.495 86.3398 109.859 86.3398H132.256C132.62 86.3398 132.913 86.0462 132.913 85.6822C132.913 85.3182 132.62 85.0247 132.256 85.0247Z" fill="#8C7228"/>
<path d="M104.262 85.0249H87.713C87.349 85.0249 87.0554 85.3185 87.0554 85.6825C87.0554 86.0465 87.349 86.34 87.713 86.34H104.262C104.626 86.34 104.919 86.0465 104.919 85.6825C104.919 85.3185 104.626 85.0249 104.262 85.0249Z" fill="#8C7228"/>
<path d="M140.279 85.0248H135.739C135.375 85.0248 135.082 85.3183 135.082 85.6823C135.082 86.0464 135.375 86.3399 135.739 86.3399H140.279C140.643 86.3399 140.937 86.0464 140.937 85.6823C140.937 85.3183 140.643 85.0248 140.279 85.0248Z" fill="#8C7228"/>
<path d="M107.307 48.6668C106.939 48.6394 106.63 48.9173 106.606 49.2774L104.23 82.4142C104.203 82.7743 104.477 83.0914 104.837 83.1148H104.888C105.232 83.1148 105.518 82.8487 105.542 82.5082L107.918 49.3713C107.945 49.0112 107.671 48.6942 107.307 48.6668Z" fill="#4F4895"/>
<path d="M116.341 54.2367C116.329 54.0605 116.247 53.9001 116.114 53.7865C115.981 53.6691 115.805 53.6143 115.636 53.6261C115.46 53.6378 115.3 53.72 115.186 53.8531C115.073 53.9862 115.014 54.1545 115.03 54.3306L117.081 82.5083C117.104 82.8527 117.394 83.1189 117.734 83.1189H117.781C117.957 83.1032 118.118 83.0249 118.231 82.8919C118.345 82.7588 118.404 82.5905 118.388 82.4143L116.337 54.2367H116.341Z" fill="#8C7228"/>
<path d="M121.946 59.497C121.711 56.2052 118.944 53.6258 115.644 53.6258H111.82L113.143 49.9818H120.752C121.116 49.9818 121.409 49.6882 121.409 49.3242C121.409 48.9602 121.116 48.6666 120.752 48.6666H112.223L109.941 54.9409H115.64C118.255 54.9409 120.447 56.9841 120.631 59.5987L122.455 82.5158C122.482 82.8564 122.772 83.1225 123.108 83.1225H123.163C123.523 83.0912 123.793 82.7742 123.766 82.4141L121.942 59.5009L121.946 59.497Z" fill="#8C7228"/>
<path d="M116.779 28.7283C116.074 28.5717 115.526 28.3212 115.143 27.9807C114.834 27.7067 114.657 27.2918 114.657 26.8456V25.0177C114.657 24.6537 114.364 24.3601 114 24.3601C113.636 24.3601 113.342 24.6537 113.342 25.0177V26.8456C113.342 27.6675 113.679 28.4425 114.27 28.967C114.822 29.4563 115.573 29.8125 116.497 30.016C118.317 30.4191 118.208 31.8361 118.188 31.9965C118.141 32.3566 118.395 32.6854 118.759 32.7324C118.787 32.7324 118.814 32.7363 118.842 32.7363C119.17 32.7363 119.452 32.4897 119.495 32.1609C119.617 31.2098 119.206 29.2684 116.783 28.7283H116.779Z" fill="#4F4895"/>
<path d="M114 24.3562C113.636 24.3562 113.343 24.6498 113.343 25.0138V26.8417C113.343 27.2918 113.166 27.7028 112.857 27.9768C112.474 28.3173 111.922 28.5678 111.221 28.7243C108.798 29.2606 108.387 31.202 108.509 32.157C108.552 32.4819 108.83 32.7285 109.158 32.7285C109.186 32.7285 109.209 32.7285 109.237 32.7246C109.593 32.6815 109.851 32.3527 109.812 31.9965C109.793 31.8361 109.683 30.4152 111.503 30.0121C112.427 29.8086 113.174 29.4524 113.73 28.9631C114.317 28.4386 114.658 27.6675 114.658 26.8456V25.0177C114.658 24.6537 114.364 24.3601 114 24.3601V24.3562Z" fill="#4F4895"/>
<path d="M120.971 31.6796H107.029C106.665 31.6796 106.372 31.9731 106.372 32.3371C106.372 32.7011 106.665 32.9947 107.029 32.9947H120.971C121.335 32.9947 121.629 32.7011 121.629 32.3371C121.629 31.9731 121.335 31.6796 120.971 31.6796Z" fill="#4F4895"/>
<path d="M120.059 35.8365L107.961 35.6995C107.788 35.6956 107.62 35.7504 107.495 35.8678C107.366 35.9892 107.291 36.1653 107.287 36.3493C107.287 36.7133 107.573 37.0108 107.937 37.0147L120.043 37.1517H120.047C120.407 37.1517 120.701 36.8581 120.705 36.5019C120.705 36.1379 120.419 35.8404 120.055 35.8365H120.059Z" fill="#4F4895"/>
<path d="M123.594 43.4297H104.403C104.039 43.4297 103.745 43.7232 103.745 44.0873C103.745 44.4513 104.039 44.7448 104.403 44.7448H123.594C123.958 44.7448 124.251 44.4513 124.251 44.0873C124.251 43.7232 123.958 43.4297 123.594 43.4297Z" fill="#4F4895"/>
<path d="M121.586 45.9071H106.415C106.051 45.9071 105.757 46.2007 105.757 46.5647C105.757 46.9287 106.051 47.2222 106.415 47.2222H121.586C121.95 47.2222 122.243 46.9287 122.243 46.5647C122.243 46.2007 121.95 45.9071 121.586 45.9071Z" fill="#4F4895"/>
<path d="M120.051 39.7231H107.945C107.581 39.7231 107.287 40.0167 107.287 40.3807C107.287 40.7447 107.581 41.0383 107.945 41.0383H120.051C120.415 41.0383 120.709 40.7447 120.709 40.3807C120.709 40.0167 120.415 39.7231 120.051 39.7231Z" fill="#4F4895"/>
<path d="M107.287 31.6796V44.7449H120.709V31.6796H107.287ZM108.602 43.4297V32.9947H119.394V43.4297H108.602Z" fill="#4F4895"/>
<path d="M111.162 39.7231C110.798 39.7231 110.505 40.0167 110.505 40.3807V44.0913C110.505 44.4553 110.798 44.7489 111.162 44.7489C111.526 44.7489 111.82 44.4553 111.82 44.0913V40.3807C111.82 40.0167 111.526 39.7231 111.162 39.7231Z" fill="#4F4895"/>
<path d="M114.114 39.7231C113.75 39.7231 113.456 40.0167 113.456 40.3807V44.0913C113.456 44.4553 113.75 44.7489 114.114 44.7489C114.478 44.7489 114.771 44.4553 114.771 44.0913V40.3807C114.771 40.0167 114.478 39.7231 114.114 39.7231Z" fill="#4F4895"/>
<path d="M117.065 39.7231C116.701 39.7231 116.407 40.0167 116.407 40.3807V44.0913C116.407 44.4553 116.701 44.7489 117.065 44.7489C117.429 44.7489 117.723 44.4553 117.723 44.0913V40.3807C117.723 40.0167 117.429 39.7231 117.065 39.7231Z" fill="#4F4895"/>
<path d="M128.643 29.5818C128.513 29.4369 128.326 29.3508 128.134 29.343L126.157 29.253C125.954 29.2491 125.758 29.3117 125.617 29.4448C125.48 29.5739 125.402 29.754 125.39 29.9497C125.382 30.1454 125.449 30.3333 125.582 30.4781C125.715 30.6229 125.895 30.709 126.091 30.7169L127.331 30.7756L127.273 31.9459C127.261 32.1416 127.328 32.3295 127.461 32.4743C127.594 32.6191 127.774 32.7052 127.981 32.717H128.009C128.4 32.717 128.721 32.4117 128.74 32.0203L128.838 30.1141C128.846 29.9184 128.78 29.7305 128.65 29.5857L128.643 29.5818Z" fill="#8C7228"/>
<path d="M104.438 34.5095C104.325 34.5095 104.211 34.4704 104.121 34.3843L99.8978 30.5171C99.706 30.341 99.6942 30.0435 99.8664 29.8517C100.043 29.6599 100.34 29.6482 100.532 29.8204L104.755 33.6876C104.947 33.8637 104.959 34.1612 104.786 34.353C104.693 34.4547 104.567 34.5056 104.438 34.5056V34.5095Z" fill="#4F4895"/>
<path d="M104.438 34.6935C104.274 34.6935 104.117 34.6309 103.996 34.5213L99.7724 30.6541C99.5062 30.4075 99.4867 29.9926 99.7293 29.7265C99.9759 29.4603 100.391 29.4408 100.661 29.6834L104.884 33.5506C105.15 33.7972 105.17 34.2121 104.927 34.4782C104.802 34.6152 104.626 34.6935 104.442 34.6935H104.438ZM100.215 29.8831C100.136 29.8831 100.062 29.9144 100.003 29.977C99.8976 30.0905 99.9055 30.2745 100.023 30.3801L104.246 34.2473C104.36 34.3491 104.548 34.3412 104.649 34.2277C104.755 34.1103 104.747 33.9302 104.63 33.8246L100.406 29.9574C100.352 29.9065 100.281 29.8831 100.215 29.8831Z" fill="#4F4895"/>
<path d="M100.215 44.2912C100.085 44.2912 99.9602 44.2403 99.8663 44.1386C99.6902 43.9468 99.7058 43.6493 99.8976 43.4732L104.121 39.606C104.313 39.4299 104.61 39.4456 104.786 39.6373C104.962 39.8291 104.947 40.1266 104.755 40.3027L100.532 44.1699C100.442 44.2521 100.328 44.2951 100.215 44.2951V44.2912Z" fill="#4F4895"/>
<path d="M100.215 44.4789C100.031 44.4789 99.8545 44.4006 99.7292 44.2636C99.4827 43.9974 99.5022 43.5786 99.7684 43.3359L103.992 39.4688C104.258 39.2261 104.677 39.2418 104.923 39.5079C105.166 39.7741 105.15 40.1929 104.884 40.4356L100.661 44.3027C100.539 44.4123 100.383 44.4749 100.219 44.4749L100.215 44.4789ZM104.438 39.6723C104.367 39.6723 104.301 39.6958 104.246 39.7467L100.023 43.6138C99.9054 43.7195 99.8976 43.8996 100.003 44.017C100.105 44.1305 100.293 44.1383 100.406 44.0366L104.63 40.1694C104.747 40.0637 104.755 39.8837 104.645 39.7663C104.591 39.7036 104.512 39.6762 104.434 39.6762L104.438 39.6723Z" fill="#4F4895"/>
<path d="M102.183 37.6054H96.1164C95.8581 37.6054 95.6467 37.394 95.6467 37.1357C95.6467 36.8774 95.8581 36.666 96.1164 36.666H102.183C102.442 36.666 102.653 36.8774 102.653 37.1357C102.653 37.394 102.442 37.6054 102.183 37.6054Z" fill="#4F4895"/>
<path d="M102.183 37.7898H96.1166C95.7525 37.7898 95.459 37.4962 95.459 37.1322C95.459 36.7682 95.7525 36.4746 96.1166 36.4746H102.183C102.547 36.4746 102.841 36.7682 102.841 37.1322C102.841 37.4962 102.547 37.7898 102.183 37.7898ZM96.1166 36.8464C95.96 36.8464 95.8308 36.9756 95.8308 37.1322C95.8308 37.2887 95.96 37.4179 96.1166 37.4179H102.183C102.34 37.4179 102.469 37.2887 102.469 37.1322C102.469 36.9756 102.34 36.8464 102.183 36.8464H96.1166Z" fill="#4F4895"/>
<path d="M134.236 81.8037H114.755V73.2827C114.755 71.4078 113.229 69.8853 111.358 69.8853C109.487 69.8853 107.96 71.4118 107.96 73.2827V81.8037H93.7599C93.3959 81.8037 93.1023 82.0973 93.1023 82.4613C93.1023 82.8253 93.3959 83.1189 93.7599 83.1189H134.236C134.6 83.1189 134.893 82.8253 134.893 82.4613C134.893 82.0973 134.6 81.8037 134.236 81.8037ZM109.275 73.2827C109.275 72.1359 110.211 71.2004 111.358 71.2004C112.505 71.2004 113.44 72.1359 113.44 73.2827V81.8037H109.271V73.2827H109.275Z" fill="#8C7228"/>
</svg>
