<svg width="61" height="61" viewBox="0 0 61 61" fill="none" xmlns="http://www.w3.org/2000/svg">
<g filter="url(#filter0_d_282_302)">
<path fill-rule="evenodd" clip-rule="evenodd" d="M30.5 49C41.8218 49 51 39.8218 51 28.5C51 17.1782 41.8218 8 30.5 8C19.1782 8 10 17.1782 10 28.5C10 39.8218 19.1782 49 30.5 49Z" fill="#EAE3EA"/>
</g>
<path d="M32.2722 24.4616V26.9223H35.37L34.9363 30.2879H32.2722V38H28.8936V30.2879H26V26.9223H28.8936V24.4616C28.8936 21.7975 31.048 20 33.7129 20C34.8857 20 35.6248 20.1789 35.6248 20.1789V23.0218H33.7129C32.9223 23.0218 32.2722 23.6719 32.2722 24.4616Z" fill="#18212D"/>
<defs>
<filter id="filter0_d_282_302" x="0" y="0" width="61" height="61" filterUnits="userSpaceOnUse" color-interpolation-filters="sRGB">
<feFlood flood-opacity="0" result="BackgroundImageFix"/>
<feColorMatrix in="SourceAlpha" type="matrix" values="0 0 0 0 0 0 0 0 0 0 0 0 0 0 0 0 0 0 127 0" result="hardAlpha"/>
<feOffset dy="2"/>
<feGaussianBlur stdDeviation="5"/>
<feColorMatrix type="matrix" values="0 0 0 0 0 0 0 0 0 0 0 0 0 0 0 0 0 0 0.1 0"/>
<feBlend mode="normal" in2="BackgroundImageFix" result="effect1_dropShadow_282_302"/>
<feBlend mode="normal" in="SourceGraphic" in2="effect1_dropShadow_282_302" result="shape"/>
</filter>
</defs>
</svg>
