<svg width="82" height="109" viewBox="0 0 82 109" fill="none" xmlns="http://www.w3.org/2000/svg">
<path d="M62.3508 18.8179C61.9856 18.4174 61.3554 18.3879 60.949 18.759L54.5939 24.5781C54.1934 24.9492 54.1639 25.5735 54.535 25.9799C54.7235 26.186 54.9885 26.3038 55.2653 26.3038C55.5127 26.3038 55.7483 26.2096 55.9368 26.0447L62.2919 20.2256C62.6924 19.8545 62.7218 19.2302 62.3508 18.8297V18.8179Z" fill="white"/>
<path d="M62.286 39.2966L55.9309 33.4775C55.5304 33.1065 54.9002 33.1359 54.5291 33.5423C54.164 33.9428 54.1875 34.573 54.5939 34.9382L60.949 40.7573C61.1316 40.9222 61.3672 41.0164 61.6204 41.0164C61.8973 41.0164 62.1623 40.8987 62.3508 40.6925C62.716 40.292 62.6924 39.6618 62.286 39.2966Z" fill="white"/>
<path d="M67.7871 28.972H58.6579C58.1102 28.972 57.6685 29.4138 57.6685 29.9615C57.6685 30.5093 58.1102 30.951 58.6579 30.951H67.7871C68.3349 30.951 68.7766 30.5093 68.7766 29.9615C68.7766 29.4138 68.3349 28.972 67.7871 28.972Z" fill="white"/>
<path d="M40.5588 0C20.4157 0 4.02441 16.3913 4.02441 36.5344C4.02441 52.0776 13.8839 65.9481 28.5554 71.0487C28.8028 71.137 29.0737 71.1193 29.3093 71.0074C29.5508 70.8896 29.7275 70.6894 29.8158 70.442C29.9042 70.1946 29.8865 69.9237 29.7746 69.6822C29.6627 69.4466 29.4566 69.264 29.2092 69.1757C15.3328 64.352 6.00927 51.2295 6.00927 36.5285C6.00927 17.475 21.5112 1.97308 40.5647 1.97308C59.6182 1.97308 75.1202 17.475 75.1202 36.5285C75.1202 51.306 65.7318 64.4462 51.7612 69.2287C51.2429 69.4054 50.972 69.9708 51.1428 70.4891C51.2783 70.8896 51.6552 71.1606 52.0793 71.1606C52.1912 71.1606 52.2972 71.1429 52.3973 71.1076C67.169 66.0482 77.0933 52.1542 77.0933 36.5344C77.0933 16.3913 60.702 0 40.5588 0Z" fill="white"/>
<path d="M63.6583 106.871H17.4587C16.911 106.871 16.4692 107.313 16.4692 107.86C16.4692 108.408 16.911 108.85 17.4587 108.85H63.6583C64.2061 108.85 64.6478 108.408 64.6478 107.86C64.6478 107.313 64.2061 106.871 63.6583 106.871Z" fill="white"/>
<path d="M68.0286 102.03H34.3271C33.7794 102.03 33.3376 102.471 33.3376 103.019C33.3376 103.567 33.7794 104.009 34.3271 104.009H68.0286C68.5763 104.009 69.018 103.567 69.018 103.019C69.018 102.471 68.5763 102.03 68.0286 102.03Z" fill="white"/>
<path d="M25.9047 102.029H1.00267C0.454919 102.029 0.0131836 102.471 0.0131836 103.019C0.0131836 103.566 0.454919 104.008 1.00267 104.008H25.9047C26.4525 104.008 26.8942 103.566 26.8942 103.019C26.8942 102.471 26.4525 102.029 25.9047 102.029Z" fill="white"/>
<path d="M80.1027 102.029H73.2705C72.7227 102.029 72.281 102.471 72.281 103.019C72.281 103.567 72.7227 104.008 73.2705 104.008H80.1027C80.6504 104.008 81.0921 103.567 81.0921 103.019C81.0921 102.471 80.6504 102.029 80.1027 102.029Z" fill="white"/>
<path d="M30.4872 47.3187C29.9336 47.2775 29.4683 47.6957 29.4329 48.2375L25.8578 98.1006C25.8166 98.6424 26.2289 99.1195 26.7707 99.1549H26.8473C27.3656 99.1549 27.7956 98.7543 27.8309 98.2419L31.406 48.3789C31.4473 47.837 31.035 47.36 30.4872 47.3187Z" fill="white"/>
<path d="M44.0806 55.6997C44.0629 55.4347 43.9392 55.1932 43.739 55.0224C43.5387 54.8457 43.2737 54.7632 43.0204 54.7809C42.7554 54.7986 42.5139 54.9223 42.3431 55.1225C42.1723 55.3228 42.084 55.576 42.1075 55.8411L45.1938 98.2417C45.2291 98.76 45.6649 99.1605 46.1774 99.1605H46.248C46.5131 99.137 46.7546 99.0192 46.9254 98.8189C47.0962 98.6187 47.1845 98.3654 47.161 98.1004L44.0747 55.6997H44.0806Z" fill="white"/>
<path d="M52.5149 63.6158C52.1616 58.6625 47.9975 54.7811 43.0324 54.7811H37.278L39.2688 49.2977H50.7186C51.2663 49.2977 51.708 48.856 51.708 48.3082C51.708 47.7605 51.2663 47.3187 50.7186 47.3187H37.8847L34.4509 56.7601H43.0265C46.9609 56.7601 50.2591 59.8345 50.536 63.7689L53.2806 98.2537C53.3218 98.7661 53.7577 99.1666 54.2642 99.1666H54.3467C54.8885 99.1195 55.2949 98.6424 55.2537 98.1006L52.509 63.6217L52.5149 63.6158Z" fill="white"/>
<path d="M44.7403 17.3157C43.6802 17.0801 42.8556 16.7032 42.2784 16.1907C41.8131 15.7785 41.5481 15.1541 41.5481 14.4827V11.7322C41.5481 11.1844 41.1063 10.7427 40.5586 10.7427C40.0108 10.7427 39.5691 11.1844 39.5691 11.7322V14.4827C39.5691 15.7196 40.0756 16.8857 40.965 17.675C41.7954 18.4112 42.9263 18.9472 44.3163 19.2534C47.055 19.8601 46.8901 21.9922 46.8607 22.2337C46.79 22.7755 47.1728 23.2703 47.7206 23.341C47.7618 23.341 47.803 23.3468 47.8443 23.3468C48.339 23.3468 48.7631 22.9758 48.8279 22.481C49.0104 21.0498 48.392 18.1285 44.7462 17.3157H44.7403Z" fill="white"/>
<path d="M40.5585 10.7369C40.0108 10.7369 39.569 11.1787 39.569 11.7264V14.477C39.569 15.1543 39.304 15.7727 38.8387 16.185C38.2615 16.6974 37.431 17.0744 36.3767 17.31C32.731 18.1169 32.1125 21.0382 32.2951 22.4753C32.3599 22.9642 32.7781 23.3352 33.2728 23.3352C33.3141 23.3352 33.3494 23.3352 33.3906 23.3293C33.9266 23.2645 34.3153 22.7698 34.2564 22.2338C34.227 21.9923 34.0621 19.8543 36.8008 19.2477C38.1908 18.9414 39.3158 18.4055 40.1521 17.6692C41.0356 16.88 41.548 15.7197 41.548 14.4829V11.7323C41.548 11.1846 41.1063 10.7428 40.5585 10.7428V10.7369Z" fill="white"/>
<path d="M51.0483 21.757H30.0688C29.5211 21.757 29.0793 22.1987 29.0793 22.7464C29.0793 23.2942 29.5211 23.7359 30.0688 23.7359H51.0483C51.5961 23.7359 52.0378 23.2942 52.0378 22.7464C52.0378 22.1987 51.5961 21.757 51.0483 21.757Z" fill="white"/>
<path d="M49.6759 28.0119L31.4706 27.8057C31.2114 27.7998 30.9582 27.8823 30.7697 28.059C30.5753 28.2416 30.4634 28.5066 30.4575 28.7834C30.4575 29.3312 30.8875 29.7788 31.4352 29.7847L49.6524 29.9908H49.6583C50.2001 29.9908 50.6419 29.5491 50.6478 29.0131C50.6478 28.4654 50.2178 28.0177 49.67 28.0119H49.6759Z" fill="white"/>
<path d="M54.9946 39.4381H26.1169C25.5692 39.4381 25.1274 39.8798 25.1274 40.4276C25.1274 40.9753 25.5692 41.4171 26.1169 41.4171H54.9946C55.5424 41.4171 55.9841 40.9753 55.9841 40.4276C55.9841 39.8798 55.5424 39.4381 54.9946 39.4381Z" fill="white"/>
<path d="M51.9731 43.1663H29.1443C28.5965 43.1663 28.1548 43.608 28.1548 44.1557C28.1548 44.7035 28.5965 45.1452 29.1443 45.1452H51.9731C52.5209 45.1452 52.9626 44.7035 52.9626 44.1557C52.9626 43.608 52.5209 43.1663 51.9731 43.1663Z" fill="white"/>
<path d="M49.6642 33.8605H31.447C30.8993 33.8605 30.4575 34.3022 30.4575 34.85C30.4575 35.3977 30.8993 35.8394 31.447 35.8394H49.6642C50.2119 35.8394 50.6536 35.3977 50.6536 34.85C50.6536 34.3022 50.2119 33.8605 49.6642 33.8605Z" fill="white"/>
<path d="M30.4575 21.757V41.4171H50.6536V21.757H30.4575ZM32.4365 39.4381V23.7359H48.6747V39.4381H32.4365Z" fill="white"/>
<path d="M36.2886 33.8605C35.7408 33.8605 35.2991 34.3022 35.2991 34.85V40.4335C35.2991 40.9812 35.7408 41.423 36.2886 41.423C36.8363 41.423 37.278 40.9812 37.278 40.4335V34.85C37.278 34.3022 36.8363 33.8605 36.2886 33.8605Z" fill="white"/>
<path d="M40.7295 33.8605C40.1817 33.8605 39.74 34.3022 39.74 34.85V40.4335C39.74 40.9812 40.1817 41.423 40.7295 41.423C41.2772 41.423 41.719 40.9812 41.719 40.4335V34.85C41.719 34.3022 41.2772 33.8605 40.7295 33.8605Z" fill="white"/>
<path d="M45.1704 33.8605C44.6226 33.8605 44.1809 34.3022 44.1809 34.85V40.4335C44.1809 40.9812 44.6226 41.423 45.1704 41.423C45.7182 41.423 46.1599 40.9812 46.1599 40.4335V34.85C46.1599 34.3022 45.7182 33.8605 45.1704 33.8605Z" fill="white"/>
<path d="M62.5924 18.6C62.398 18.3821 62.1153 18.2525 61.8267 18.2407L58.8523 18.1052C58.5461 18.0994 58.2516 18.1936 58.0396 18.3938C57.8334 18.5882 57.7156 18.8591 57.698 19.1536C57.6862 19.4481 57.7863 19.7308 57.9865 19.9488C58.1868 20.1667 58.4577 20.2962 58.7522 20.308L60.6193 20.3964L60.5309 22.1574C60.5133 22.4519 60.6134 22.7346 60.8137 22.9525C61.0139 23.1705 61.2848 23.3 61.597 23.3177H61.6382C62.2272 23.3177 62.7102 22.8583 62.7396 22.2693L62.8869 19.401C62.8986 19.1065 62.7985 18.8238 62.6041 18.6059L62.5924 18.6Z" fill="white"/>
<path d="M26.1698 26.0153C25.999 26.0153 25.8282 25.9564 25.6927 25.8268L19.3376 20.0077C19.049 19.7426 19.0313 19.295 19.2905 19.0064C19.5555 18.7178 20.0031 18.7001 20.2917 18.9593L26.6468 24.7784C26.9354 25.0435 26.9531 25.4911 26.694 25.7797C26.5526 25.9328 26.3641 26.0094 26.1698 26.0094V26.0153Z" fill="white"/>
<path d="M26.1699 26.2921C25.9225 26.2921 25.6869 26.1978 25.5043 26.0329L19.1492 20.2138C18.7487 19.8427 18.7193 19.2184 19.0844 18.8179C19.4555 18.4174 20.0798 18.388 20.4862 18.7531L26.8413 24.5723C27.2418 24.9433 27.2713 25.5676 26.9061 25.9681C26.7176 26.1743 26.4526 26.2921 26.1758 26.2921H26.1699ZM19.8148 19.0535C19.697 19.0535 19.5851 19.1006 19.4967 19.1949C19.3377 19.3657 19.3495 19.6425 19.5262 19.8015L25.8813 25.6206C26.0521 25.7738 26.3348 25.762 26.4879 25.5912C26.6469 25.4145 26.6352 25.1436 26.4585 24.9845L20.1034 19.1654C20.0209 19.0889 19.9149 19.0535 19.8148 19.0535Z" fill="white"/>
<path d="M19.8148 40.7339C19.6204 40.7339 19.432 40.6573 19.2906 40.5042C19.0256 40.2156 19.0491 39.768 19.3377 39.5029L25.6928 33.6838C25.9814 33.4188 26.4291 33.4423 26.6941 33.7309C26.9591 34.0195 26.9356 34.4671 26.647 34.7322L20.2919 40.5513C20.1564 40.675 19.9856 40.7398 19.8148 40.7398V40.7339Z" fill="white"/>
<path d="M19.8147 41.0167C19.5378 41.0167 19.2728 40.8989 19.0843 40.6928C18.7133 40.2922 18.7427 39.662 19.1432 39.2969L25.4983 33.4777C25.8988 33.1126 26.529 33.1361 26.9001 33.5366C27.2653 33.9372 27.2417 34.5674 26.8412 34.9325L20.4861 40.7517C20.3035 40.9166 20.0679 41.0108 19.8205 41.0108L19.8147 41.0167ZM26.1697 33.784C26.0637 33.784 25.9636 33.8194 25.8812 33.8959L19.5261 39.715C19.3494 39.8741 19.3376 40.145 19.4966 40.3217C19.6497 40.4925 19.9325 40.5043 20.1033 40.3511L26.4584 34.532C26.635 34.373 26.6468 34.1021 26.4819 33.9254C26.3995 33.8311 26.2817 33.7899 26.1639 33.7899L26.1697 33.784Z" fill="white"/>
<path d="M22.7774 30.6741H13.6482C13.2595 30.6741 12.9414 30.356 12.9414 29.9673C12.9414 29.5785 13.2595 29.2605 13.6482 29.2605H22.7774C23.1661 29.2605 23.4841 29.5785 23.4841 29.9673C23.4841 30.356 23.1661 30.6741 22.7774 30.6741Z" fill="white"/>
<path d="M22.7774 30.951H13.6482C13.1004 30.951 12.6587 30.5093 12.6587 29.9615C12.6587 29.4138 13.1004 28.972 13.6482 28.972H22.7774C23.3251 28.972 23.7669 29.4138 23.7669 29.9615C23.7669 30.5093 23.3251 30.951 22.7774 30.951ZM13.6482 29.5316C13.4126 29.5316 13.2182 29.7259 13.2182 29.9615C13.2182 30.1971 13.4126 30.3915 13.6482 30.3915H22.7774C23.013 30.3915 23.2073 30.1971 23.2073 29.9615C23.2073 29.7259 23.013 29.5316 22.7774 29.5316H13.6482Z" fill="white"/>
<path d="M71.0087 97.1818H41.6952V84.3597C41.6952 81.5385 39.3981 79.2473 36.5828 79.2473C33.7675 79.2473 31.4705 81.5443 31.4705 84.3597V97.1818H10.1023C9.55452 97.1818 9.11279 97.6235 9.11279 98.1712C9.11279 98.719 9.55452 99.1607 10.1023 99.1607H71.0087C71.5565 99.1607 71.9982 98.719 71.9982 98.1712C71.9982 97.6235 71.5565 97.1818 71.0087 97.1818ZM33.4494 84.3597C33.4494 82.634 34.8571 81.2263 36.5828 81.2263C38.3085 81.2263 39.7162 82.634 39.7162 84.3597V97.1818H33.4436V84.3597H33.4494Z" fill="white"/>
</svg>
