<svg width="53" height="53" viewBox="0 0 53 53" fill="none" xmlns="http://www.w3.org/2000/svg">
<g filter="url(#filter0_d_282_311)">
<path fill-rule="evenodd" clip-rule="evenodd" d="M26.5 45C38.9264 45 49 34.9264 49 22.5C49 10.0736 38.9264 0 26.5 0C14.0736 0 4 10.0736 4 22.5C4 34.9264 14.0736 45 26.5 45Z" fill="#EAE3EA"/>
<path d="M27 14C24.5576 14 24.2505 14.0113 23.2909 14.054C22.3313 14.099 21.6776 14.2497 21.105 14.4725C20.5044 14.6984 19.9603 15.0528 19.5109 15.5109C19.0531 15.9605 18.6987 16.5045 18.4725 17.105C18.2497 17.6765 18.0979 18.3312 18.054 19.2875C18.0113 20.2494 18 20.5554 18 23.0011C18 25.4446 18.0113 25.7506 18.054 26.7103C18.099 27.6688 18.2497 28.3224 18.4725 28.895C18.7031 29.4867 19.0103 29.9885 19.5109 30.4891C20.0104 30.9897 20.5121 31.298 21.1039 31.5275C21.6776 31.7502 22.3301 31.9021 23.2886 31.946C24.2494 31.9888 24.5554 32 27 32C29.4446 32 29.7495 31.9888 30.7103 31.946C31.6676 31.901 32.3235 31.7502 32.8961 31.5275C33.4964 31.3015 34.04 30.9471 34.4891 30.4891C34.9897 29.9885 35.2969 29.4867 35.5275 28.895C35.7491 28.3224 35.901 27.6688 35.946 26.7103C35.9888 25.7506 36 25.4446 36 23C36 20.5554 35.9888 20.2494 35.946 19.2886C35.901 18.3313 35.7491 17.6765 35.5275 17.105C35.3013 16.5045 34.9469 15.9605 34.4891 15.5109C34.0398 15.0526 33.4957 14.6982 32.895 14.4725C32.3212 14.2497 31.6665 14.0979 30.7091 14.054C29.7484 14.0113 29.4435 14 26.9978 14H27.0011H27ZM26.1934 15.6223H27.0011C29.4041 15.6223 29.6887 15.6301 30.6371 15.674C31.5146 15.7134 31.9916 15.8607 32.3089 15.9834C32.7285 16.1465 33.0289 16.3422 33.3439 16.6572C33.6589 16.9722 33.8535 17.2715 34.0166 17.6923C34.1404 18.0084 34.2866 18.4854 34.326 19.3629C34.3699 20.3113 34.3789 20.5959 34.3789 22.9978C34.3789 25.3996 34.3699 25.6854 34.326 26.6337C34.2866 27.5112 34.1392 27.9871 34.0166 28.3044C33.8723 28.6952 33.642 29.0485 33.3427 29.3383C33.0277 29.6532 32.7285 29.8479 32.3078 30.011C31.9928 30.1348 31.5157 30.281 30.6371 30.3215C29.6887 30.3643 29.4041 30.3744 27.0011 30.3744C24.5981 30.3744 24.3124 30.3643 23.364 30.3215C22.4865 30.281 22.0106 30.1348 21.6934 30.011C21.3024 29.8669 20.9488 29.637 20.6584 29.3383C20.3588 29.048 20.1282 28.6944 19.9834 28.3032C19.8607 27.9871 19.7134 27.5101 19.674 26.6326C19.6313 25.6842 19.6223 25.3996 19.6223 22.9955C19.6223 20.5925 19.6313 20.309 19.674 19.3606C19.7145 18.4831 19.8608 18.0061 19.9845 17.6889C20.1476 17.2693 20.3434 16.9689 20.6584 16.6539C20.9734 16.3389 21.2726 16.1443 21.6934 15.9811C22.0106 15.8574 22.4865 15.7111 23.364 15.6706C24.1943 15.6324 24.516 15.6211 26.1934 15.62V15.6223ZM31.8049 17.1163C31.663 17.1163 31.5226 17.1442 31.3916 17.1985C31.2605 17.2527 31.1415 17.3323 31.0412 17.4326C30.9409 17.5329 30.8614 17.6519 30.8071 17.783C30.7528 17.914 30.7249 18.0544 30.7249 18.1962C30.7249 18.3381 30.7528 18.4785 30.8071 18.6095C30.8614 18.7406 30.9409 18.8596 31.0412 18.9599C31.1415 19.0602 31.2605 19.1398 31.3916 19.194C31.5226 19.2483 31.663 19.2762 31.8049 19.2762C32.0913 19.2762 32.366 19.1625 32.5686 18.9599C32.7711 18.7574 32.8849 18.4827 32.8849 18.1962C32.8849 17.9098 32.7711 17.6351 32.5686 17.4326C32.366 17.23 32.0913 17.1163 31.8049 17.1163ZM27.0011 18.3785C26.3881 18.3689 25.7793 18.4814 25.2101 18.7094C24.6409 18.9374 24.1228 19.2763 23.6859 19.7065C23.249 20.1366 22.902 20.6494 22.6652 21.2149C22.4284 21.7804 22.3064 22.3874 22.3064 23.0006C22.3064 23.6137 22.4284 24.2207 22.6652 24.7862C22.902 25.3517 23.249 25.8645 23.6859 26.2946C24.1228 26.7248 24.6409 27.0637 25.2101 27.2917C25.7793 27.5197 26.3881 27.6322 27.0011 27.6226C28.2145 27.6037 29.3717 27.1084 30.2231 26.2437C31.0745 25.3789 31.5516 24.2141 31.5516 23.0006C31.5516 21.7871 31.0745 20.6222 30.2231 19.7575C29.3717 18.8927 28.2145 18.3974 27.0011 18.3785ZM27.0011 19.9996C27.7969 19.9996 28.56 20.3157 29.1227 20.8784C29.6854 21.4411 30.0015 22.2043 30.0015 23C30.0015 23.7957 29.6854 24.5589 29.1227 25.1216C28.56 25.6843 27.7969 26.0004 27.0011 26.0004C26.2054 26.0004 25.4422 25.6843 24.8795 25.1216C24.3169 24.5589 24.0008 23.7957 24.0008 23C24.0008 22.2043 24.3169 21.4411 24.8795 20.8784C25.4422 20.3157 26.2054 19.9996 27.0011 19.9996Z" fill="#18212D"/>
</g>
<defs>
<filter id="filter0_d_282_311" x="0" y="0" width="53" height="53" filterUnits="userSpaceOnUse" color-interpolation-filters="sRGB">
<feFlood flood-opacity="0" result="BackgroundImageFix"/>
<feColorMatrix in="SourceAlpha" type="matrix" values="0 0 0 0 0 0 0 0 0 0 0 0 0 0 0 0 0 0 127 0" result="hardAlpha"/>
<feOffset dy="4"/>
<feGaussianBlur stdDeviation="2"/>
<feComposite in2="hardAlpha" operator="out"/>
<feColorMatrix type="matrix" values="0 0 0 0 0 0 0 0 0 0 0 0 0 0 0 0 0 0 0.11 0"/>
<feBlend mode="normal" in2="BackgroundImageFix" result="effect1_dropShadow_282_311"/>
<feBlend mode="normal" in="SourceGraphic" in2="effect1_dropShadow_282_311" result="shape"/>
</filter>
</defs>
</svg>
