<svg width="127" height="42" viewBox="0 0 127 42" fill="none" xmlns="http://www.w3.org/2000/svg">
<path d="M67.5981 26.9334L68.0884 27.0315L67.5981 26.9334ZM126.522 22.9424L124.151 17.6785L120.778 22.3643L126.522 22.9424ZM3.28991 16.1744C3.5335 16.0443 3.62553 15.7414 3.49547 15.4978C3.3654 15.2542 3.06249 15.1622 2.8189 15.2922L3.28991 16.1744ZM8.69477 12.2977C8.44643 12.4185 8.34301 12.7177 8.46376 12.966C8.58451 13.2144 8.88372 13.3178 9.13207 13.197L8.69477 12.2977ZM13.3625 11.209C13.6139 11.0949 13.7253 10.7986 13.6112 10.5471C13.4971 10.2956 13.2008 10.1843 12.9493 10.2984L13.3625 11.209ZM19.0053 7.69149C18.7495 7.79556 18.6265 8.08728 18.7306 8.34306C18.8347 8.59884 19.1264 8.72183 19.3822 8.61776L19.0053 7.69149ZM23.7429 6.9213C24.0018 6.82529 24.1338 6.53758 24.0378 6.27866C23.9418 6.01974 23.6541 5.88767 23.3952 5.98367L23.7429 6.9213ZM29.6344 3.84406C29.3709 3.9267 29.2243 4.2073 29.307 4.47078C29.3896 4.73427 29.6702 4.88087 29.9337 4.79822L29.6344 3.84406ZM34.4244 3.49516C34.6913 3.4243 34.8503 3.15049 34.7794 2.88359C34.7085 2.6167 34.4347 2.45778 34.1678 2.52864L34.4244 3.49516ZM40.6153 1.07523C40.3436 1.12458 40.1633 1.38484 40.2127 1.65654C40.262 1.92824 40.5223 2.10848 40.794 2.05912L40.6153 1.07523ZM45.4033 1.39578C45.678 1.36752 45.8778 1.12193 45.8495 0.847239C45.8212 0.572548 45.5757 0.372774 45.301 0.401034L45.4033 1.39578ZM51.9366 0.20429C51.6609 0.188889 51.4249 0.399914 51.4095 0.675629C51.3941 0.951341 51.6052 1.18733 51.8809 1.20273L51.9366 0.20429ZM56.4378 1.83568C56.7066 1.89922 56.9759 1.73289 57.0395 1.46415C57.103 1.19542 56.9367 0.926061 56.6679 0.862517L56.4378 1.83568ZM62.8222 3.56147C62.5982 3.39997 62.2857 3.45062 62.1242 3.67461C61.9627 3.8986 62.0134 4.2111 62.2373 4.37261L62.8222 3.56147ZM65.3562 7.6016C65.5096 7.83121 65.8201 7.89299 66.0497 7.73959C66.2793 7.58618 66.3411 7.27569 66.1877 7.04607L65.3562 7.6016ZM68.6321 13.3039C68.5811 13.0325 68.3198 12.8539 68.0484 12.9049C67.777 12.9559 67.5983 13.2173 67.6494 13.4887L68.6321 13.3039ZM68.057 18.0443C68.0584 18.3205 68.2834 18.5432 68.5595 18.5418C68.8357 18.5404 69.0584 18.3154 69.057 18.0392L68.057 18.0443ZM68.5138 24.655C68.5565 24.3822 68.3701 24.1263 68.0973 24.0835C67.8245 24.0407 67.5686 24.2272 67.5258 24.5L68.5138 24.655ZM66.5842 29.3403C66.5252 29.6101 66.696 29.8766 66.9658 29.9356C67.2355 29.9946 67.5021 29.8237 67.5611 29.5539L66.5842 29.3403ZM65.8511 36.2288C65.9326 35.965 65.7848 35.685 65.521 35.6035C65.2571 35.522 64.9772 35.6698 64.8957 35.9336L65.8511 36.2288ZM63.1112 40.3248C62.9634 40.5581 63.0327 40.867 63.266 41.0147C63.4992 41.1625 63.8081 41.0932 63.9559 40.86L63.1112 40.3248ZM61.1763 36.3942C61.1497 36.6691 61.351 36.9135 61.6258 36.9401C61.9007 36.9667 62.1451 36.7654 62.1717 36.4906L61.1763 36.3942ZM63.0077 31.7402C63.0739 31.4721 62.9102 31.2011 62.6421 31.1349C62.374 31.0688 62.1031 31.2324 62.0369 31.5005L63.0077 31.7402ZM64.266 24.9172C64.1557 25.1703 64.2715 25.465 64.5246 25.5753C64.7778 25.6856 65.0724 25.5697 65.1827 25.3166L64.266 24.9172ZM67.3992 21.0064C67.5416 20.7698 67.4652 20.4626 67.2286 20.3201C66.992 20.1777 66.6848 20.2541 66.5424 20.4907L67.3992 21.0064ZM70.7449 14.9305C70.5546 15.1306 70.5625 15.447 70.7625 15.6374C70.9626 15.8277 71.2791 15.8199 71.4694 15.6198L70.7449 14.9305ZM75.093 12.447C75.3171 12.2857 75.3679 11.9732 75.2066 11.7491C75.0452 11.525 74.7327 11.4742 74.5086 11.6356L75.093 12.447ZM80.7049 8.389C80.4445 8.48098 80.308 8.76663 80.4 9.027C80.4919 9.28737 80.7776 9.42387 81.038 9.33189L80.7049 8.389ZM85.6756 8.19168C85.9488 8.15157 86.1378 7.89758 86.0977 7.62436C86.0575 7.35115 85.8036 7.16218 85.5303 7.20228L85.6756 8.19168ZM92.5364 7.02294C92.2612 6.99953 92.0192 7.20361 91.9958 7.47876C91.9724 7.75391 92.1765 7.99594 92.4516 8.01934L92.5364 7.02294ZM97.2285 8.74718C97.4984 8.80551 97.7645 8.63399 97.8228 8.36408C97.8811 8.09417 97.7096 7.82808 97.4397 7.76974L97.2285 8.74718ZM104.04 9.70215C103.78 9.60748 103.493 9.74103 103.399 10.0004C103.304 10.2598 103.437 10.5469 103.697 10.6416L104.04 9.70215ZM108.225 12.501C108.477 12.6153 108.773 12.5041 108.888 12.2527C109.002 12.0013 108.891 11.7049 108.639 11.5906L108.225 12.501ZM114.789 14.7188C114.548 14.5838 114.243 14.6696 114.108 14.9105C113.973 15.1514 114.059 15.4561 114.3 15.5911L114.789 14.7188ZM118.505 18.0874C118.739 18.2339 119.047 18.163 119.194 17.9289C119.34 17.6948 119.269 17.3863 119.035 17.2398L118.505 18.0874ZM124.741 21.0439C124.515 20.8846 124.203 20.9384 124.044 21.1639C123.885 21.3895 123.938 21.7015 124.164 21.8608L124.741 21.0439ZM1.24182 17.2868C1.90899 16.9181 2.59217 16.5469 3.28991 16.1744L2.8189 15.2922C2.11697 15.667 1.42959 16.0405 0.758179 16.4115L1.24182 17.2868ZM9.13207 13.197C10.5102 12.5269 11.9232 11.862 13.3625 11.209L12.9493 10.2984C11.5017 10.9552 10.0807 11.6238 8.69477 12.2977L9.13207 13.197ZM19.3822 8.61776C20.8246 8.03091 22.2806 7.46347 23.7429 6.9213L23.3952 5.98367C21.9226 6.52968 20.4568 7.10093 19.0053 7.69149L19.3822 8.61776ZM29.9337 4.79822C31.4383 4.32628 32.9379 3.88983 34.4244 3.49516L34.1678 2.52864C32.6659 2.92741 31.152 3.36805 29.6344 3.84406L29.9337 4.79822ZM40.794 2.05912C42.365 1.77374 43.905 1.54993 45.4033 1.39578L45.301 0.401034C43.7743 0.558096 42.2087 0.785777 40.6153 1.07523L40.794 2.05912ZM51.8809 1.20273C53.4917 1.2927 55.0163 1.49956 56.4378 1.83568L56.6679 0.862517C55.1807 0.510846 53.5968 0.297012 51.9366 0.20429L51.8809 1.20273ZM62.2373 4.37261C63.4486 5.246 64.4964 6.31476 65.3562 7.6016L66.1877 7.04607C65.2599 5.65735 64.1277 4.50278 62.8222 3.56147L62.2373 4.37261ZM67.6494 13.4887C67.9084 14.8664 68.0485 16.3817 68.057 18.0443L69.057 18.0392C69.0482 16.3239 68.9037 14.7478 68.6321 13.3039L67.6494 13.4887ZM67.5258 24.5C67.4072 25.2564 67.2681 26.0346 67.1078 26.8352L68.0884 27.0315C68.2512 26.2178 68.3928 25.4258 68.5138 24.655L67.5258 24.5ZM67.1078 26.8352C66.9316 27.716 66.7569 28.5505 66.5842 29.3403L67.5611 29.5539C67.7351 28.758 67.911 27.9177 68.0884 27.0315L67.1078 26.8352ZM64.8957 35.9336C64.2181 38.1264 63.6108 39.5362 63.1112 40.3248L63.9559 40.86C64.5278 39.9572 65.1662 38.4452 65.8511 36.2288L64.8957 35.9336ZM62.1717 36.4906C62.3062 35.0998 62.5773 33.4837 63.0077 31.7402L62.0369 31.5005C61.5957 33.2873 61.3159 34.9513 61.1763 36.3942L62.1717 36.4906ZM65.1827 25.3166C65.8126 23.8708 66.5483 22.4199 67.3992 21.0064L66.5424 20.4907C65.6672 21.9447 64.9117 23.4349 64.266 24.9172L65.1827 25.3166ZM71.4694 15.6198C72.5648 14.4685 73.7702 13.3997 75.093 12.447L74.5086 11.6356C73.1316 12.6272 71.8798 13.7377 70.7449 14.9305L71.4694 15.6198ZM81.038 9.33189C82.482 8.82172 84.026 8.43384 85.6756 8.19168L85.5303 7.20228C83.8172 7.45377 82.2103 7.85713 80.7049 8.389L81.038 9.33189ZM92.4516 8.01934C93.9718 8.14863 95.5632 8.38727 97.2285 8.74718L97.4397 7.76974C95.735 7.40133 94.1014 7.15605 92.5364 7.02294L92.4516 8.01934ZM103.697 10.6416C105.158 11.1748 106.667 11.7927 108.225 12.501L108.639 11.5906C107.059 10.8723 105.526 10.2446 104.04 9.70215L103.697 10.6416ZM114.3 15.5911C115.668 16.3577 117.069 17.1888 118.505 18.0874L119.035 17.2398C117.587 16.333 116.172 15.4937 114.789 14.7188L114.3 15.5911Z" fill="url(#paint0_linear_282_279)"/>
<defs>
<linearGradient id="paint0_linear_282_279" x1="2.47922" y1="16.5628" x2="82.9317" y2="50.3669" gradientUnits="userSpaceOnUse">
<stop stop-color="#8A737D"/>
<stop offset="1" stop-color="white"/>
</linearGradient>
</defs>
</svg>
