<svg width="61" height="61" viewBox="0 0 61 61" fill="none" xmlns="http://www.w3.org/2000/svg">
<g filter="url(#filter0_d_282_308)">
<path fill-rule="evenodd" clip-rule="evenodd" d="M30.5 49C41.8218 49 51 39.8218 51 28.5C51 17.1782 41.8218 8 30.5 8C19.1782 8 10 17.1782 10 28.5C10 39.8218 19.1782 49 30.5 49Z" fill="#EAE3EA"/>
</g>
<path d="M26.3331 21.6674C26.3329 22.1094 26.1571 22.5332 25.8444 22.8456C25.5317 23.158 25.1077 23.3334 24.6657 23.3331C24.2237 23.3329 23.7999 23.1571 23.4875 22.8444C23.1752 22.5317 22.9998 22.1077 23 21.6657C23.0002 21.2237 23.176 20.7999 23.4887 20.4875C23.8014 20.1752 24.2254 19.9998 24.6674 20C25.1094 20.0002 25.5332 20.176 25.8456 20.4887C26.158 20.8014 26.3334 21.2254 26.3331 21.6674ZM26.3831 24.5672H23.05V35H26.3831V24.5672ZM31.6495 24.5672H28.333V35H31.6162V29.5253C31.6162 26.4755 35.591 26.1922 35.591 29.5253V35H38.8825V28.392C38.8825 23.2507 32.9994 23.4423 31.6162 25.9672L31.6495 24.5672Z" fill="#18212D"/>
<defs>
<filter id="filter0_d_282_308" x="0" y="0" width="61" height="61" filterUnits="userSpaceOnUse" color-interpolation-filters="sRGB">
<feFlood flood-opacity="0" result="BackgroundImageFix"/>
<feColorMatrix in="SourceAlpha" type="matrix" values="0 0 0 0 0 0 0 0 0 0 0 0 0 0 0 0 0 0 127 0" result="hardAlpha"/>
<feOffset dy="2"/>
<feGaussianBlur stdDeviation="5"/>
<feColorMatrix type="matrix" values="0 0 0 0 0 0 0 0 0 0 0 0 0 0 0 0 0 0 0.1 0"/>
<feBlend mode="normal" in2="BackgroundImageFix" result="effect1_dropShadow_282_308"/>
<feBlend mode="normal" in="SourceGraphic" in2="effect1_dropShadow_282_308" result="shape"/>
</filter>
</defs>
</svg>
