<svg width="61" height="61" viewBox="0 0 61 61" fill="none" xmlns="http://www.w3.org/2000/svg">
<g filter="url(#filter0_d_282_305)">
<path fill-rule="evenodd" clip-rule="evenodd" d="M30.5 49C41.8218 49 51 39.8218 51 28.5C51 17.1782 41.8218 8 30.5 8C19.1782 8 10 17.1782 10 28.5C10 39.8218 19.1782 49 30.5 49Z" fill="#EAE3EA"/>
</g>
<path d="M32.2503 27.7749L38.0366 21H36.6651L31.6423 26.8823L27.6286 21H23L29.0686 29.896L23 37H24.3714L29.6766 30.7874L33.9154 37H38.544L32.2503 27.7749ZM30.3726 29.9737L29.7577 29.088L24.8651 22.04H26.9714L30.9189 27.728L31.5337 28.6137L36.6663 36.008H34.56L30.3726 29.9737Z" fill="#18212D"/>
<defs>
<filter id="filter0_d_282_305" x="0" y="0" width="61" height="61" filterUnits="userSpaceOnUse" color-interpolation-filters="sRGB">
<feFlood flood-opacity="0" result="BackgroundImageFix"/>
<feColorMatrix in="SourceAlpha" type="matrix" values="0 0 0 0 0 0 0 0 0 0 0 0 0 0 0 0 0 0 127 0" result="hardAlpha"/>
<feOffset dy="2"/>
<feGaussianBlur stdDeviation="5"/>
<feColorMatrix type="matrix" values="0 0 0 0 0 0 0 0 0 0 0 0 0 0 0 0 0 0 0.1 0"/>
<feBlend mode="normal" in2="BackgroundImageFix" result="effect1_dropShadow_282_305"/>
<feBlend mode="normal" in="SourceGraphic" in2="effect1_dropShadow_282_305" result="shape"/>
</filter>
</defs>
</svg>
